<?xml version="1.0" standalone="no"?>
<!DOCTYPE svg PUBLIC "-//W3C//DTD SVG 20010904//EN"
 "http://www.w3.org/TR/2001/REC-SVG-20010904/DTD/svg10.dtd">
<svg version="1.0" xmlns="http://www.w3.org/2000/svg"
 width="1024.000000pt" height="1024.000000pt" viewBox="0 0 1024.000000 1024.000000"
 preserveAspectRatio="xMidYMid meet">
<metadata>
Created by potrace 1.11, written by Peter Selinger 2001-2013
</metadata>
<g transform="translate(0.000000,1024.000000) scale(0.100000,-0.100000)"
fill="#000000" stroke="none">
<path d="M2200 10229 c-922 -62 -1555 -415 -1898 -1059 -129 -241 -223 -554
-266 -882 -36 -273 -37 -425 -34 -3288 3 -2605 5 -2826 21 -2960 98 -812 408
-1358 958 -1688 294 -177 654 -284 1120 -334 183 -19 5855 -19 6038 0 651 70
1105 253 1449 585 300 291 482 649 582 1147 68 338 64 136 68 3250 2 1955 0
2869 -8 2993 -29 471 -114 824 -275 1142 -106 211 -211 352 -381 514 -360 344
-874 535 -1559 581 -184 12 -5632 11 -5815 -1z m2755 -1820 c668 -57 1281
-300 1800 -713 133 -106 400 -374 509 -511 390 -491 625 -1056 702 -1690 11
-95 17 -216 17 -375 0 -346 -37 -611 -128 -925 -96 -330 -225 -606 -420 -900
-490 -740 -1259 -1253 -2120 -1415 -295 -55 -234 -53 -1702 -57 l-1363 -4 0
3301 0 3300 1293 0 c802 0 1338 -4 1412 -11z m-3439 -3583 c128 -34 252 -131
313 -247 45 -83 61 -148 61 -249 0 -101 -16 -166 -61 -249 -61 -116 -185 -213
-313 -247 -66 -18 -206 -18 -272 0 -170 45 -315 190 -360 360 -18 66 -18 206
0 272 44 167 189 314 355 360 62 17 214 17 277 0z m0 -1670 c130 -34 254 -134
317 -254 48 -91 61 -159 55 -281 -5 -94 -8 -108 -46 -185 -55 -111 -127 -183
-238 -238 -77 -38 -91 -41 -185 -46 -122 -6 -190 7 -282 55 -94 50 -168 127
-219 229 -38 77 -41 91 -46 185 -6 122 7 190 54 280 62 117 188 220 313 255
62 17 214 17 277 0z"/>
<path d="M3980 5089 l0 -1550 473 4 c438 3 479 5 564 25 269 62 507 182 706
357 246 215 420 507 495 830 187 805 -327 1637 -1135 1839 -170 42 -223 46
-672 46 l-431 0 0 -1551z"/>
</g>
</svg>
